HIERARCHY
ROOT Hips
{
	OFFSET 173.408295 91.952423 -518.280273
	CHANNELS 6 Xposition Yposition Zposition Zrotation Yrotation Xrotation 
	JOINT LeftUpLeg
	{
		OFFSET 0.103459 1.857827 10.548504
		CHANNELS 3 Zrotation Yrotation Xrotation
		JOINT LeftLeg
		{
			OFFSET 43.500008 0.000000 0.000004
			CHANNELS 3 Zrotation Yrotation Xrotation
			JOINT LeftFoot
			{
				OFFSET 42.372192 0.000011 0.000000
				CHANNELS 3 Zrotation Yrotation Xrotation
				JOINT LeftToe
				{
					OFFSET 17.299973 -0.000013 -0.000010
					CHANNELS 3 Zrotation Yrotation Xrotation
					End Site
					{
						OFFSET 0.000000 0.000000 0.000000
					}
				}
			}
		}
	}
	JOINT RightUpLeg
	{
		OFFSET 0.103454 1.857830 -10.548500
		CHANNELS 3 Zrotation Yrotation Xrotation
		JOINT RightLeg
		{
			OFFSET 43.500038 -0.000038 0.000004
			CHANNELS 3 Zrotation Yrotation Xrotation
			JOINT RightFoot
			{
				OFFSET 42.372253 0.000019 0.000024
				CHANNELS 3 Zrotation Yrotation Xrotation
				JOINT RightToe
				{
					OFFSET 17.299988 -0.000007 0.000004
					CHANNELS 3 Zrotation Yrotation Xrotation
					End Site
					{
						OFFSET 0.000000 0.000000 0.000000
					}
				}
			}
		}
	}
	JOINT Spine
	{
		OFFSET 6.901963 -2.603744 0.000004
		CHANNELS 3 Zrotation Yrotation Xrotation
		JOINT Spine1
		{
			OFFSET 12.588104 0.000008 -0.000010
			CHANNELS 3 Zrotation Yrotation Xrotation
			JOINT Spine2
			{
				OFFSET 12.343202 -0.000005 0.000010
				CHANNELS 3 Zrotation Yrotation Xrotation
				JOINT Neck
				{
					OFFSET 25.832897 0.000000 0.000001
					CHANNELS 3 Zrotation Yrotation Xrotation
					JOINT Head
					{
						OFFSET 11.766611 -0.000006 -0.000000
						CHANNELS 3 Zrotation Yrotation Xrotation
						End Site
						{
							OFFSET 0.000000 0.000000 0.000000
						}
					}
				}
				JOINT LeftShoulder
				{
					OFFSET 19.745899 -1.480366 6.000108
					CHANNELS 3 Zrotation Yrotation Xrotation
					JOINT LeftArm
					{
						OFFSET 11.284111 -0.000018 -0.000015
						CHANNELS 3 Zrotation Yrotation Xrotation
						JOINT LeftForeArm
						{
							OFFSET 33.000050 -0.000005 0.000028
							CHANNELS 3 Zrotation Yrotation Xrotation
							JOINT LeftHand
							{
								OFFSET 25.200012 0.000000 0.000002
								CHANNELS 3 Zrotation Yrotation Xrotation
								End Site
								{
									OFFSET 0.000000 0.000000 0.000000
								}
							}
						}
					}
				}
				JOINT RightShoulder
				{
					OFFSET 19.746111 -1.480335 -6.000074
					CHANNELS 3 Zrotation Yrotation Xrotation
					JOINT RightArm
					{
						OFFSET 11.284151 0.000036 0.000001
						CHANNELS 3 Zrotation Yrotation Xrotation
						JOINT RightForeArm
						{
							OFFSET 33.000092 -0.000035 0.000022
							CHANNELS 3 Zrotation Yrotation Xrotation
							JOINT RightHand
							{
								OFFSET 25.199768 0.000178 0.000417
								CHANNELS 3 Zrotation Yrotation Xrotation
								End Site
								{
									OFFSET 0.000000 0.000000 0.000000
								}
							}
						}
					}
				}
			}
		}
	}
}
MOTION
Frames: 6
Frame Time: 0.033333
-0.900171 -0.054488 -0.008515 -101.904221 -37.499012 -45.587357 165.984879 63.657406 89.777527 122.896614 32.001675 -42.768902 -99.027290 31.504103 -69.199608 21.453779 0.003095 -0.000000 -152.736771 -57.733562 156.754288 102.178268 -3.109869 14.221769 -110.987907 -56.039761 64.654167 21.456715 -0.003105 -0.000019 8.997104 -5.035282 -0.278252 7.913730 -10.756162 -1.061617 14.300263 -14.884560 6.015005 -60.943787 -59.026588 -37.397713 59.652336 33.005402 -147.129242 -44.047363 -83.072693 -112.937180 -45.679764 -32.483597 13.910913 116.188850 -0.371756 -38.209099 -24.635471 -16.343210 160.188385 103.039406 36.992226 -23.966343 -158.346268 -35.072796 -113.285187 28.842440 27.378988 -27.614496 -45.832256 -0.071968 -127.350471 
-1.714006 -0.492025 -0.239483 -98.561050 -33.425453 -46.609585 167.630844 62.989628 92.016396 122.783821 31.646755 -42.769115 -99.693474 32.549816 -70.945564 21.453747 0.003096 -0.000000 -153.292740 -57.267624 157.968933 102.763367 -3.004150 14.538505 -111.471809 -56.305138 65.031563 21.456745 -0.003105 -0.000020 10.306713 -4.908019 -0.506328 7.530478 -10.609778 -1.417525 13.165958 -14.527062 5.588519 -52.619400 -60.517056 -43.354912 61.330227 33.210728 -146.760620 -43.509216 -83.026733 -113.459671 -45.943707 -33.383308 13.955994 116.260376 -0.489983 -37.731647 -25.026371 -16.772629 159.902008 101.233940 36.924271 -24.820919 -158.427780 -35.412468 -112.805687 27.884148 26.144236 -27.515392 -45.371365 -0.283036 -126.850883 
-2.674793 -1.151765 -0.543757 -95.280838 -31.086611 -47.372116 168.163696 62.494549 92.173889 122.849594 30.664986 -42.467999 -100.426498 33.639515 -71.824234 21.453726 0.003097 -0.000000 -153.293365 -56.826397 157.945282 103.000343 -2.943767 15.212617 -112.898865 -56.811924 66.436760 21.456774 -0.003106 -0.000020 11.550117 -4.766631 -0.889155 7.967987 -10.484180 -1.745935 13.050629 -14.251536 5.108552 -43.653675 -63.736664 -48.812298 65.574112 32.314209 -145.857178 -42.549534 -82.903381 -114.407394 -46.184834 -34.549740 13.528902 116.208084 -0.661749 -37.057884 -25.444984 -16.991907 159.403748 99.404434 36.607613 -25.627199 -158.223175 -35.899693 -112.511299 26.996758 24.656868 -27.400934 -44.026558 -0.729523 -126.627838 
-3.874884 -1.812054 -0.660292 -92.606674 -31.314510 -48.839943 169.288406 61.665028 93.323517 123.009354 29.245377 -41.932167 -100.927231 34.311462 -71.878670 21.453711 0.003098 -0.000000 -153.209488 -56.569241 157.100250 103.025482 -2.767821 16.080709 -114.669830 -57.382267 67.816231 21.456793 -0.003105 -0.000020 12.902820 -4.811150 -1.065152 9.333928 -10.502500 -2.221061 13.771354 -14.117692 4.490925 -34.262459 -67.960022 -54.268059 71.401085 30.578291 -144.781418 -40.204113 -82.735085 -116.757080 -46.085384 -35.640167 12.685051 116.044678 -0.893418 -36.273170 -25.848982 -16.819351 158.748047 98.013138 36.166641 -26.121401 -157.668381 -36.569271 -112.475243 26.308973 23.191357 -27.344213 -42.246273 -1.037542 -126.789192 
-5.225145 -2.436836 -0.328626 -90.880768 -34.454872 -51.572414 170.423599 60.583107 94.625381 123.609108 27.707878 -41.338375 -101.025833 34.447086 -71.056252 21.453728 0.003098 -0.000000 -154.091736 -56.520634 157.033203 104.667831 -3.083460 18.407986 -115.710594 -54.879292 67.915703 21.456778 -0.003105 -0.000019 14.237670 -4.861636 -1.214196 11.373731 -10.739148 -2.430124 15.037844 -14.276973 4.146227 -25.896198 -72.357315 -59.496834 77.495720 28.686073 -143.828156 -38.744671 -82.524368 -118.176216 -45.693504 -36.796711 11.512299 115.905983 -1.218721 -35.567028 -26.114470 -16.719965 157.944580 97.454140 35.756672 -26.382746 -156.863235 -37.439972 -112.800995 25.798662 21.962353 -27.305525 -40.519943 -1.348742 -127.224968 
-6.572111 -2.993011 0.428002 -89.098801 -39.510178 -56.871674 170.192261 59.239964 94.675690 124.637001 26.564514 -41.073868 -100.535561 33.780609 -69.296852 21.453733 0.003098 0.000000 -155.835068 -57.073792 157.861481 106.881325 -3.743262 22.360573 -117.502747 -51.324883 68.441795 21.456745 -0.003106 -0.000019 15.232007 -4.918503 -0.914766 13.779041 -11.351895 -2.046772 16.427744 -15.043076 4.453278 -21.011446 -75.990685 -62.314579 82.759399 26.989132 -143.239212 -39.065830 -82.328049 -117.786766 -44.940166 -38.075668 10.142388 115.973747 -1.698430 -35.124989 -25.922344 -16.474588 156.807617 98.305893 35.314816 -26.289505 -156.001434 -38.508801 -113.493034 25.443129 21.265984 -27.567625 -39.427700 -1.695517 -127.705093 
